<?xml version="1.0" encoding="iso-8859-1"?>
<!-- Generator: Adobe Illustrator 29.1.0, SVG Export Plug-In . SVG Version: 9.03 Build 55587)  -->
<svg version="1.1" xmlns="http://www.w3.org/2000/svg" xmlns:xlink="http://www.w3.org/1999/xlink" x="0px" y="0px"
	 viewBox="0 0 403.009 264.288" style="enable-background:new 0 0 403.009 264.288;" xml:space="preserve">
<g id="Layer_2">
	<g>
		<g>
			<path style="fill:#2F2F40;" d="M56.847,220.375c-6.509,0-11.243-2.663-12.426-8.284l6.213-1.775
				c0.888,3.254,3.254,4.734,6.213,4.734c2.367,0,4.734-0.888,4.734-3.55c0-3.255-4.438-3.55-9.172-5.03
				c-3.55-1.183-7.397-2.959-7.397-7.988c0-5.917,5.03-8.58,10.947-8.58c5.621,0,10.355,2.071,11.243,7.692l-5.325,1.479
				c-0.888-2.959-2.959-4.142-5.621-4.142c-2.367,0-4.438,0.888-4.438,2.959c0,2.663,3.55,3.254,7.101,4.142
				c4.438,1.183,9.467,2.959,9.467,9.172C68.386,218.008,63.06,220.375,56.847,220.375 M88.504,220.375
				c-8.876,0-15.681-5.621-15.681-15.385c0-9.467,6.509-15.089,15.681-15.089s15.68,5.621,15.68,15.089
				C103.889,214.754,97.38,220.375,88.504,220.375 M88.208,214.458c5.03,0,8.58-3.846,8.58-9.467s-3.55-9.467-8.58-9.467
				c-4.734,0-8.284,3.846-8.284,9.467C79.924,210.908,83.475,214.458,88.208,214.458 M110.694,219.784v-44.379h7.396v44.379H110.694
				z M130.812,185.464c-2.367,0-4.438-2.071-4.438-4.438c0-2.367,2.071-4.438,4.438-4.438c2.367,0,4.438,1.775,4.438,4.438
				C135.25,183.393,133.179,185.464,130.812,185.464 M127.262,219.784v-29.29h7.396v29.29H127.262z M164.54,175.405h7.101v44.379
				h-6.805l-0.296-4.438c-1.775,3.255-5.325,5.03-9.467,5.03c-7.692,0-13.905-5.917-13.905-15.385
				c0-9.467,6.213-15.385,13.905-15.385c4.142,0,7.692,1.775,9.467,4.734L164.54,175.405z M156.848,214.458
				c4.734,0,8.284-3.846,8.284-9.172s-3.846-9.172-8.284-9.172c-4.734,0-8.284,3.55-8.284,9.172S152.114,214.458,156.848,214.458
				 M193.83,220.375c-8.876,0-15.385-6.213-15.385-15.089c0-9.172,6.509-15.089,15.385-15.089c7.101,0,12.426,3.846,13.905,10.355
				l-6.805,0.888c-1.183-3.55-3.846-5.325-7.397-5.325c-4.734,0-7.988,3.846-7.988,9.467c0,5.621,3.255,9.467,7.988,9.467
				c3.55,0,6.213-1.775,7.397-5.325l6.805,0.888C206.256,216.529,200.635,220.375,193.83,220.375 M227.558,220.375
				c-8.876,0-15.681-5.621-15.681-15.385c0-9.467,6.509-15.089,15.681-15.089c9.172,0,15.68,5.621,15.68,15.089
				C243.238,214.754,236.434,220.375,227.558,220.375 M227.262,214.458c5.03,0,8.58-3.846,8.58-9.467s-3.55-9.467-8.58-9.467
				c-4.734,0-8.284,3.846-8.284,9.467C218.978,210.908,222.528,214.458,227.262,214.458 M256.848,195.227
				c1.479-2.663,5.325-5.03,9.467-5.03v6.509c-5.917,0-9.172,2.071-9.172,8.284v14.793h-7.397v-29.29h6.805L256.848,195.227z
				 M298.268,204.695v1.775h-22.189c0.296,5.325,3.846,7.988,8.284,7.988c3.255,0,5.621-1.479,6.805-4.438l6.509,1.183
				c-2.071,5.621-7.101,9.172-13.61,9.172c-9.172,0-15.385-5.621-15.385-15.089c0-9.763,6.213-15.385,15.089-15.385
				C292.351,189.902,298.268,194.636,298.268,204.695 M284.067,195.227c-4.142,0-6.805,2.071-7.692,6.509h14.793
				C290.872,197.298,287.913,195.227,284.067,195.227"/>
			<path style="fill:#2F2F40;" d="M306.61,220.584c-2.442,0-4.274-2.137-4.274-4.274c0-2.137,2.137-4.579,4.274-4.579
				c2.442,0,4.579,2.137,4.579,4.579C311.189,218.752,309.052,220.584,306.61,220.584 M342.021,211.426
				c0,4.274,0.305,6.411,0.916,7.632v0.916h-7.021l-0.61-3.358c-2.442,2.747-6.105,3.968-9.768,3.968
				c-4.884,0-9.158-2.137-9.158-8.242s4.579-8.242,10.99-9.768l5.189-0.916c2.137-0.305,2.747-1.221,2.747-2.442
				c0-3.358-2.747-4.579-5.495-4.579c-3.358,0-5.8,1.221-6.411,4.884l-6.716-1.221c1.221-6.105,5.8-8.853,13.126-8.853
				c6.105,0,12.211,2.137,12.211,10.684V211.426L342.021,211.426z M327.673,215.394c4.579,0,7.632-2.747,7.632-9.463l-7.326,1.832
				c-2.747,0.611-4.884,1.526-4.884,3.968C323.095,214.173,325.231,215.394,327.673,215.394L327.673,215.394z M354.842,184.257
				c-2.442,0-4.579-2.137-4.579-4.579s2.137-4.274,4.579-4.274c2.442,0,4.579,1.832,4.579,4.579
				C359.116,182.426,356.979,184.257,354.842,184.257 M350.874,219.973v-30.221h7.632v30.221L350.874,219.973z"/>
		</g>
		<g>
			<path style="fill:#870068;" d="M217.237,84.971l-0.635-11.424c-0.058-1.043-0.638-1.987-1.543-2.509l-25.073-14.476
				c0.052-0.394,0.082-0.795,0.082-1.204c0-5.032-4.079-9.111-9.111-9.111c-5.032,0-9.111,4.079-9.111,9.111
				s4.079,9.111,9.111,9.111c1.916,0,3.693-0.593,5.16-1.603l21.781,12.575c0.905,0.522,1.485,1.466,1.543,2.509l0.257,4.626
				c0.042,0.756-0.195,1.502-0.665,2.096l-3.328,4.197l2.369,0.418c1.511,0.266,2.775,1.327,3.3,2.769l0.391,1.073l4.808-6.062
				C217.042,86.473,217.279,85.728,217.237,84.971z M180.956,61.426c-3.351,0-6.068-2.717-6.068-6.068
				c0-3.351,2.717-6.068,6.068-6.068c3.351,0,6.068,2.717,6.068,6.068C187.024,58.709,184.307,61.426,180.956,61.426z"/>
			<path style="fill:#870068;" d="M162.19,132.869h0.442c0.66,0,1.195-0.535,1.195-1.195V105.38c0-0.66-0.535-1.195-1.195-1.195
				h-0.442c-3.845,0-6.962,3.117-6.962,6.962v14.76C155.228,129.752,158.345,132.869,162.19,132.869z"/>
			<path style="fill:#870068;" d="M211.185,150.138l0.221-0.383c0.33-0.572,0.134-1.303-0.438-1.633l-22.771-13.147
				c-0.572-0.33-1.303-0.134-1.633,0.438l-0.221,0.383c-1.923,3.33-0.782,7.588,2.548,9.511l12.782,7.38
				C205.005,154.609,209.263,153.468,211.185,150.138z"/>
			<path style="fill:#870068;" d="M250.638,116.341l-0.221-0.383c-0.33-0.572-1.061-0.768-1.633-0.438l-22.771,13.147
				c-0.572,0.33-0.768,1.061-0.438,1.633l0.221,0.383c1.923,3.33,6.181,4.471,9.511,2.548l12.782-7.38
				C251.42,123.929,252.561,119.671,250.638,116.341z"/>
			<path style="fill:#870068;" d="M241.096,65.276h-0.442c-0.66,0-1.195,0.535-1.195,1.195v26.294c0,0.66,0.535,1.195,1.195,1.195
				h0.442c3.845,0,6.962-3.117,6.962-6.962v-14.76C248.058,68.393,244.941,65.276,241.096,65.276z"/>
			<path style="fill:#870068;" d="M192.101,48.007l-0.221,0.383c-0.33,0.572-0.134,1.303,0.438,1.633l22.771,13.147
				c0.572,0.33,1.303,0.134,1.633-0.438l0.221-0.383c1.923-3.33,0.782-7.588-2.548-9.511l-12.782-7.38
				C198.282,43.536,194.024,44.677,192.101,48.007z"/>
			<path style="fill:#870068;" d="M152.648,81.803l0.221,0.383c0.33,0.572,1.061,0.768,1.633,0.438l22.771-13.147
				c0.572-0.33,0.768-1.061,0.438-1.633l-0.221-0.383c-1.923-3.33-6.181-4.471-9.511-2.548l-12.782,7.38
				C151.867,74.215,150.726,78.473,152.648,81.803z"/>
			<path style="fill:#870068;" d="M187.477,59.335"/>
			<path style="fill:#870068;" d="M198.377,80.661c-0.279-0.704-0.806-1.282-1.482-1.624l-10.211-5.162
				c-0.933-0.471-2.04-0.441-2.945,0.082l-24.943,14.401c-0.317-0.243-0.651-0.471-1.006-0.676
				c-4.358-2.516-9.93-1.023-12.446,3.335c-2.516,4.358-1.023,9.93,3.335,12.446c4.358,2.516,9.93,1.023,12.446-3.335
				c0.957-1.658,1.333-3.491,1.192-5.265l21.655-12.502c0.905-0.522,2.012-0.553,2.945-0.082l4.135,2.09
				c0.676,0.342,1.203,0.92,1.482,1.624l2.139,5.407l1.672-1.993c0.74-0.882,1.778-1.422,2.925-1.523
				c0.375-0.033,0.753-0.016,1.124,0.049l0.925,0.163L198.377,80.661z M158.488,98.606c-1.675,2.902-5.386,3.896-8.288,2.221
				c-2.902-1.675-3.896-5.386-2.221-8.288s5.386-3.896,8.288-2.221C159.169,91.993,160.164,95.704,158.488,98.606z"/>
			<path style="fill:#870068;" d="M191.333,95.38l0.777-0.926l-8.378-1.239c-0.749-0.111-1.513,0.057-2.148,0.472l-9.576,6.262
				c-0.875,0.572-1.402,1.546-1.402,2.591l0,28.775c-0.326,0.14-0.648,0.299-0.963,0.481c-4.358,2.516-5.851,8.089-3.335,12.446
				s8.089,5.851,12.446,3.335c4.358-2.516,5.851-8.089,3.335-12.446c-0.982-1.701-2.43-2.962-4.089-3.723l0-24.869
				c0-1.045,0.527-2.019,1.402-2.591l3.878-2.536c0.634-0.415,1.398-0.582,2.147-0.472l5.958,0.881l-0.801-2.2
				C190.061,98.181,190.347,96.555,191.333,95.38z M179.454,136.653c1.675,2.902,0.681,6.613-2.221,8.288
				c-2.902,1.675-6.612,0.681-8.288-2.221c-1.675-2.902-0.681-6.613,2.221-8.288S177.778,133.751,179.454,136.653z"/>
			<path style="fill:#870068;" d="M222.887,134.476c-2.015,0-3.877,0.656-5.386,1.763L195.956,123.8
				c-0.905-0.522-1.485-1.466-1.543-2.509l-0.257-4.626c-0.042-0.756,0.195-1.502,0.665-2.096l3.586-4.523l-1.855-0.327
				c-1.511-0.266-2.775-1.328-3.3-2.769l-0.575-1.58l-5.396,6.804c-0.471,0.594-0.707,1.339-0.665,2.096l0.635,11.424
				c0.058,1.043,0.638,1.987,1.543,2.509l25.028,14.45c-0.031,0.307-0.047,0.618-0.047,0.933c0,5.032,4.079,9.111,9.111,9.111
				c5.032,0,9.111-4.079,9.111-9.111C231.998,138.555,227.919,134.476,222.887,134.476z M222.887,149.655
				c-3.351,0-6.068-2.717-6.068-6.068c0-3.351,2.717-6.068,6.068-6.068c3.351,0,6.068,2.717,6.068,6.068
				C228.955,146.939,226.238,149.655,222.887,149.655z"/>
			<path style="fill:#870068;" d="M255.164,95.483c-4.358-2.516-9.93-1.023-12.446,3.335c-1.009,1.747-1.372,3.689-1.165,5.552
				l-21.671,12.512c-0.905,0.522-2.012,0.553-2.945,0.082l-4.135-2.09c-0.676-0.342-1.203-0.92-1.482-1.624l-1.955-4.941
				l-1.084,1.292c-0.74,0.882-1.778,1.422-2.925,1.523c-0.375,0.033-0.753,0.016-1.124-0.049l-1.855-0.327l3.1,7.834
				c0.279,0.704,0.806,1.282,1.482,1.624l10.211,5.162c0.933,0.471,2.04,0.441,2.945-0.082l25.158-14.525
				c0.249,0.179,0.509,0.348,0.78,0.504c4.358,2.516,9.93,1.023,12.446-3.335C261.015,103.571,259.522,97.999,255.164,95.483z
				 M255.862,106.407c-1.675,2.902-5.386,3.896-8.288,2.221c-2.902-1.675-3.896-5.386-2.221-8.288
				c1.675-2.902,5.386-3.896,8.288-2.221S257.538,103.505,255.862,106.407z"/>
			<path style="fill:#870068;" d="M237.534,54.703c-2.516-4.358-8.089-5.851-12.446-3.335c-4.358,2.516-5.851,8.089-3.335,12.446
				c0.984,1.704,2.436,2.968,4.1,3.727l0,25.16c0,1.045-0.527,2.019-1.402,2.591l-3.878,2.536c-0.634,0.415-1.398,0.582-2.147,0.472
				l-5.051-0.747l0.666,1.83c0.525,1.442,0.238,3.067-0.748,4.243l-1.038,1.237l7.866,1.164c0.749,0.111,1.513-0.057,2.148-0.472
				l9.576-6.262c0.875-0.572,1.402-1.546,1.402-2.591l0-29.076c0.322-0.139,0.641-0.296,0.952-0.476
				C238.557,64.634,240.05,59.061,237.534,54.703z M232.676,64.513c-2.902,1.675-6.612,0.681-8.288-2.221
				c-1.675-2.902-0.681-6.612,2.221-8.288s6.612-0.681,8.288,2.221C236.572,59.127,235.578,62.838,232.676,64.513z"/>
			<path style="fill:#870068;" d="M197.623,92.96l-2.568,3.061c-0.996,1.187-1.283,2.816-0.753,4.272l1.367,3.755
				c0.53,1.456,1.797,2.519,3.323,2.789l3.935,0.694c1.526,0.269,3.08-0.296,4.077-1.484l2.568-3.061
				c0.996-1.187,1.283-2.816,0.753-4.272l-1.367-3.755c-0.53-1.456-1.797-2.519-3.323-2.789l-3.935-0.694
				C200.173,91.207,198.619,91.773,197.623,92.96z"/>
		</g>
	</g>
</g>
<g id="Layer_1" style="display:none;">
	
		<line style="display:inline;fill:none;stroke:#231F20;stroke-width:0.25;stroke-miterlimit:10;" x1="0.125" y1="44.56" x2="402.884" y2="44.56"/>
	
		<line style="display:inline;fill:none;stroke:#231F20;stroke-width:0.25;stroke-miterlimit:10;" x1="0.125" y1="219.784" x2="402.884" y2="219.784"/>
	<polyline style="display:inline;fill:none;stroke:#231F20;stroke-width:0.25;stroke-miterlimit:10;" points="0.125,264.163 
		402.884,264.163 402.884,0.125 358.505,0.125 0.125,0.125 0.125,264.163 	"/>
	
		<line style="display:inline;fill:none;stroke:#231F20;stroke-width:0.25;stroke-miterlimit:10;" x1="358.505" y1="264.163" x2="358.505" y2="0.125"/>
	
		<line style="display:inline;fill:none;stroke:#231F20;stroke-width:0.25;stroke-miterlimit:10;" x1="44.421" y1="0.125" x2="44.421" y2="264.163"/>
	<g style="display:inline;">
		<path d="M20.929,239.071l0.828,1.247c0.216,0.324,0.396,0.624,0.588,0.947h0.036c0.192-0.348,0.384-0.647,0.576-0.959l0.815-1.235
			h1.14l-1.979,2.807l2.039,2.998h-1.2l-0.852-1.308c-0.228-0.336-0.419-0.659-0.624-1.007h-0.024
			c-0.192,0.348-0.396,0.659-0.612,1.007l-0.839,1.308h-1.163l2.062-2.962l-1.967-2.843H20.929z"/>
	</g>
	<g style="display:inline;">
		<path d="M379.309,239.071l0.828,1.247c0.216,0.324,0.396,0.624,0.588,0.947h0.036c0.192-0.348,0.384-0.647,0.576-0.959
			l0.815-1.235h1.14l-1.979,2.807l2.039,2.998h-1.2l-0.852-1.308c-0.228-0.336-0.419-0.659-0.624-1.007h-0.024
			c-0.192,0.348-0.396,0.659-0.612,1.007l-0.839,1.308h-1.163l2.062-2.962l-1.967-2.843H379.309z"/>
	</g>
	<g style="display:inline;">
		<path d="M20.929,20.233l0.828,1.247c0.216,0.324,0.396,0.624,0.588,0.947h0.036c0.192-0.348,0.384-0.647,0.576-0.959l0.815-1.235
			h1.14l-1.979,2.807l2.039,2.998h-1.2L22.92,24.73c-0.228-0.336-0.419-0.659-0.624-1.007h-0.024
			c-0.192,0.348-0.396,0.659-0.612,1.007l-0.839,1.308h-1.163l2.062-2.962l-1.967-2.843H20.929z"/>
	</g>
	<g style="display:inline;">
		<path d="M379.309,20.233l0.828,1.247c0.216,0.324,0.396,0.624,0.588,0.947h0.036c0.192-0.348,0.384-0.647,0.576-0.959l0.815-1.235
			h1.14l-1.979,2.807l2.039,2.998h-1.2L381.3,24.73c-0.228-0.336-0.419-0.659-0.624-1.007h-0.024
			c-0.192,0.348-0.396,0.659-0.612,1.007l-0.839,1.308h-1.163l2.062-2.962l-1.967-2.843H379.309z"/>
	</g>
</g>
</svg>
